<svg width="63" height="30" viewBox="0 0 63 30" fill="none" xmlns="http://www.w3.org/2000/svg">
<path d="M29.788 9.14648C28.8335 9.14648 28.1914 9.81926 28.1914 10.8696C28.1914 11.9027 28.7875 12.5928 29.6481 12.5928C30.4627 12.5928 31.0263 12.0139 31.0263 11.1993V9.77326C30.7905 9.36499 30.3516 9.14648 29.788 9.14648Z" fill="#515050"/>
<path d="M38.6373 9.00476C37.838 9.00476 37.2898 9.44369 37.0713 10.1797H40.0461C40.0001 9.47628 39.4519 9.00476 38.6373 9.00476Z" fill="#515050"/>
<path d="M20.7203 9.00476C19.921 9.00476 19.3728 9.44369 19.1543 10.1797H22.1291C22.0831 9.47628 21.5349 9.00476 20.7203 9.00476Z" fill="#515050"/>
<path d="M51.6465 12.2154C51.6465 12.6544 52.0068 12.9035 52.601 12.9035C53.431 12.9035 53.9791 12.4033 53.9791 11.6672V11.5427C53.7127 11.4794 53.3677 11.4487 53.0246 11.4487C52.1333 11.4487 51.6465 11.7305 51.6465 12.2154Z" fill="#515050"/>
<path d="M59.3708 0H13.7008C12.9782 0 12.3169 0.277926 11.8186 0.732192L1.28804 9.49933C0.515601 9.99959 0 10.8679 0 11.8512V27.1026C0 28.6417 1.25929 29.901 2.79843 29.901H48.4684C49.0396 29.901 49.5744 29.7266 50.019 29.4295L50.021 29.4276C50.1839 29.3183 50.3353 29.1918 50.4714 29.0519L60.7163 20.5014C61.5808 20.0241 62.1711 19.1022 62.1711 18.0499V2.79843C62.1692 1.25929 60.9099 0 59.3708 0ZM24.5265 11.3701H19.1232C19.2804 12.2153 19.8746 12.7329 20.8138 12.7329C21.454 12.7329 21.9677 12.4856 22.1498 12.062L24.3444 12.5987C23.8614 14.0516 22.5216 14.9409 20.7352 14.9409C18.276 14.9409 16.6008 13.2657 16.6008 10.8372C16.6008 8.45662 18.2147 6.79673 20.626 6.79673C23.2116 6.79865 24.7929 8.67705 24.5265 11.3701ZM33.5141 14.7838H31.0242V14.3295C30.4914 14.7205 29.8339 14.9409 29.0979 14.9409C27.047 14.9409 25.5577 13.2504 25.5577 10.9158C25.5577 8.47196 27.1716 6.79673 29.4889 6.79673C30.0524 6.79673 30.57 6.90599 31.0242 7.09383V3.82196H33.5141V14.7838V14.7838ZM42.4441 11.3701H37.0409C37.198 12.2153 37.7922 12.7329 38.7314 12.7329C39.3716 12.7329 39.8853 12.4856 40.0674 12.062L42.262 12.5987C41.779 14.0516 40.4392 14.9409 38.6528 14.9409C36.1937 14.9409 34.5184 13.2657 34.5184 10.8372C34.5184 8.45662 36.1323 6.79673 38.5436 6.79673C41.1273 6.79865 42.7086 8.67705 42.4441 11.3701ZM48.1656 9.15048C48.0141 9.10065 47.8531 9.06806 47.6672 9.06806C46.7127 9.06806 46.038 9.81942 46.038 10.8698V14.7857H43.5482V6.95391H46.038V7.51743C46.5862 7.06316 47.2743 6.79673 48.0582 6.79673C48.5278 6.79673 48.9438 6.93282 49.1699 7.07658C48.6237 7.6746 48.3036 8.34354 48.1656 9.15048ZM56.4708 14.7838H53.9809V14.2988C53.3848 14.7052 52.6335 14.9409 51.7882 14.9409C50.113 14.9409 49.0166 14.0324 49.0166 12.6083C49.0166 11.0423 50.3315 10.1184 52.6335 10.1184C53.1031 10.1184 53.5727 10.1644 53.9809 10.2277V9.93059C53.9809 9.36707 53.5382 9.08148 52.7906 9.00673C52.068 8.93389 51.5486 9.48399 51.4873 9.92292L49.2984 9.38816C49.5859 7.71293 50.9429 6.80057 52.9632 6.80057C55.0466 6.80057 56.4708 7.91227 56.4708 9.46291V14.7838V14.7838Z" fill="#515050"/>
</svg>
