<svg width="120" height="50" viewBox="0 0 120 50" fill="none" xmlns="http://www.w3.org/2000/svg">
<g clip-path="url(#clip0_13_385)">
<path d="M30.8469 43.7216C29.28 42.5802 27.068 42.9032 25.9066 44.443C24.7451 45.983 25.0738 48.1567 26.6405 49.2982C28.2076 50.4397 30.4194 50.1168 31.5809 48.5769C32.7425 47.0369 32.4139 44.8632 30.8469 43.7216Z" fill="#613EC7"/>
<path d="M24.7656 36.5369C21.4803 34.1435 16.8425 34.8206 14.4069 38.0494C11.9714 41.2784 12.6605 45.8361 15.9461 48.2296C19.2314 50.623 23.8692 49.9459 26.3047 46.7171C28.7403 43.4883 28.0511 38.9304 24.7656 36.5369Z" fill="#FFBC0F"/>
<path d="M4.46878 33.5415C9.36973 37.112 16.2879 36.1018 19.9211 31.2853C23.5542 26.469 22.5263 19.6701 17.6252 16.0997C12.7242 12.5293 5.80607 13.5394 2.17301 18.3558C-1.46004 23.1722 -0.432202 29.9712 4.46878 33.5415Z" fill="#FE803C"/>
<path d="M12.76 16.6106C16.0783 19.0279 20.7623 18.344 23.2221 15.0829C25.6819 11.8219 24.9861 7.21864 21.6678 4.80123C18.3495 2.38385 13.6655 3.06777 11.2057 6.32881C8.74581 9.58986 9.44176 14.1932 12.76 16.6106Z" fill="#EA4B48"/>
<path d="M26.5058 6.25872C28.0725 7.40013 30.2842 7.07721 31.4456 5.53743C32.6071 3.99767 32.2785 1.82413 30.7118 0.682708C29.145 -0.458713 26.9334 -0.135785 25.7719 1.40398C24.6103 2.94376 24.939 5.11729 26.5058 6.25872Z" fill="#86B982"/>
<path d="M46.8033 24.5007H39.3646V26.6689H44.3379C43.8915 28.6475 42.2338 30.0368 39.5347 30.0368C36.1979 30.0368 34.0301 27.7424 34.0301 24.7743C34.0301 21.7643 36.2404 19.4699 39.3859 19.4699C41.3412 19.4699 42.9989 20.4381 43.7641 21.8064L45.8681 20.6066C44.6142 18.5226 42.2126 17.1123 39.3859 17.1123C34.9227 17.1123 31.5859 20.5223 31.5859 24.7533C31.5859 28.9844 34.8802 32.3944 39.5134 32.3944C43.8703 32.3944 46.8033 29.5316 46.8033 25.5111V24.5007Z" fill="black"/>
<path d="M52.5447 29.8052V25.8269H58.4956V23.5325H52.5447V19.7015H59.027V17.386H50.1006V32.1207H59.1333V29.8052H52.5447Z" fill="black"/>
<path d="M71.3599 17.386V27.3845L64.3464 17.386H62.4336V32.1207H64.8777V22.1221L71.8913 32.1207H73.804V17.386H71.3599Z" fill="black"/>
<path d="M80.282 29.8052V25.8269H86.233V23.5325H80.282V19.7015H86.7643V17.386H77.8379V32.1207H86.8706V29.8052H80.282Z" fill="black"/>
<path d="M95.1221 32.3944C98.225 32.3944 100.393 30.7524 100.393 28.0582C100.393 25.1322 97.9064 24.3745 95.4409 23.5956C93.2731 22.9221 92.4443 22.4378 92.4443 21.3012C92.4443 20.1856 93.3581 19.4699 94.782 19.4699C96.4398 19.4699 97.3749 20.354 97.9064 21.5328L99.9678 20.354C99.0326 18.3964 97.2262 17.1123 94.782 17.1123C92.2742 17.1123 90.0001 18.6489 90.0001 21.3643C90.0001 24.1429 92.2529 24.9849 94.5696 25.6795C96.7799 26.3531 97.9487 26.7952 97.9487 28.1003C97.9487 29.1738 97.1199 30.0368 95.1859 30.0368C93.1668 30.0368 92.0191 29.0475 91.4878 27.5529L89.3838 28.7738C90.1701 30.963 92.1891 32.3944 95.1221 32.3944Z" fill="black"/>
<path d="M103.458 17.386V32.1207H105.902V17.386H103.458Z" fill="black"/>
<path d="M114.682 32.3944C117.785 32.3944 119.953 30.7524 119.953 28.0582C119.953 25.1322 117.466 24.3745 115.001 23.5956C112.833 22.9221 112.004 22.4378 112.004 21.3012C112.004 20.1856 112.918 19.4699 114.342 19.4699C115.999 19.4699 116.935 20.354 117.466 21.5328L119.528 20.354C118.592 18.3964 116.786 17.1123 114.342 17.1123C111.834 17.1123 109.56 18.6489 109.56 21.3643C109.56 24.1429 111.813 24.9849 114.129 25.6795C116.339 26.3531 117.508 26.7952 117.508 28.1003C117.508 29.1738 116.68 30.0368 114.745 30.0368C112.726 30.0368 111.579 29.0475 111.047 27.5529L108.943 28.7738C109.73 30.963 111.749 32.3944 114.682 32.3944Z" fill="black"/>
</g>
<defs>
<clipPath id="clip0_13_385">
<rect width="120" height="50" fill="white"/>
</clipPath>
</defs>
</svg>
