<svg width="164" height="26" viewBox="0 0 164 26" fill="none" xmlns="http://www.w3.org/2000/svg">
<path d="M29.2132 0V13.7982C20.0359 8.74269 9.17728 8.74269 0 13.7982V0H29.2132Z" fill="#FF9E19"/>
<path d="M70.616 10.0731C70.616 10.8334 70.0555 11.4416 69.355 11.4416C68.6544 11.4416 68.094 10.8334 68.094 10.0731C68.094 9.3129 68.6544 8.70471 69.355 8.70471C70.0555 8.70471 70.616 9.3129 70.616 10.0731ZM47.5327 9.92109V14.9386H43.2243V9.92109H40.7723V22.3509H43.2243V17.2573H47.5327V22.3889H49.9846V9.92109H47.5327ZM63.8556 14.1784L63.7505 14.3685V13.1901H61.4737V22.3889H63.7505V16.231C64.2059 15.3948 65.4669 14.8246 66.6228 15.2047L66.7629 13.1141C65.6771 12.81 64.5562 13.2281 63.8556 14.1784ZM70.5109 13.1901V22.3889H68.2341V13.1901H70.5109ZM80.2136 13.1901H72.7527V15.1287H77.3763L72.5075 20.8304V22.4269H80.1435V20.4883H75.3798L80.2486 14.7866L80.2136 13.1901ZM85.8531 12.962C83.3311 12.962 81.5446 14.9386 81.5446 17.7515C81.5446 20.5263 83.3661 22.503 85.8531 22.503C88.3751 22.503 90.1965 20.4883 90.1965 17.7515C90.1965 14.9386 88.4101 12.962 85.8531 12.962ZM85.8531 20.2223C84.6271 20.2223 83.7514 19.1959 83.7514 17.7515C83.7514 16.269 84.5921 15.2427 85.8531 15.2427C87.1141 15.2427 87.9897 16.269 87.9897 17.7515C87.9897 19.272 87.1491 20.2223 85.8531 20.2223ZM55.6941 12.962C53.1721 12.962 51.3857 14.9386 51.3857 17.7515C51.3857 20.5263 53.2072 22.503 55.6941 22.503C58.2161 22.503 60.0376 20.4883 60.0376 17.7515C60.0376 14.9386 58.2512 12.962 55.6941 12.962ZM55.6941 20.2223C54.4682 20.2223 53.5925 19.1959 53.5925 17.7515C53.5925 16.269 54.4331 15.2427 55.6941 15.2427C56.9551 15.2427 57.8308 16.269 57.8308 17.7515C57.8308 19.272 56.9902 20.2223 55.6941 20.2223ZM96.4665 13C95.5908 13 94.7501 13.4182 94.1546 14.1784L94.0496 14.3304V13.1901H91.7727V22.3889H94.0496V16.231C94.0846 16.193 94.7851 15.1287 95.7659 15.1287C96.9218 15.1287 97.5173 15.8889 97.5173 17.4094V22.4269H99.7941V17.2193C99.8291 14.3304 98.7433 13 96.4665 13ZM149.604 21.3626C148.903 22.1228 147.957 22.503 146.977 22.503C145.085 22.503 143.999 21.3626 143.999 19.348V10.9854H146.276V13.1521H148.903V15.4328H146.276V18.5497C146.276 19.538 146.451 20.1842 147.222 20.1842C147.747 20.1842 148.273 19.9942 148.693 19.6141L149.604 21.3626ZM161.723 9.92109V22.3509H164V9.92109H161.723ZM141.477 13.1901V22.3889H139.2V13.1901H141.477ZM141.582 10.0731C141.582 10.8334 141.022 11.4416 140.321 11.4416C139.621 11.4416 139.06 10.8334 139.06 10.0731C139.06 9.3129 139.621 8.70471 140.321 8.70471C141.022 8.70471 141.582 9.3129 141.582 10.0731ZM116.993 20.2983C115.942 21.7047 114.366 22.541 112.684 22.579C109.672 22.579 107.115 19.6141 107.115 16.155C107.115 12.1638 109.987 9.73103 112.684 9.73103C114.296 9.73103 115.837 10.5293 116.888 11.8597L115.522 13.4182C114.821 12.6579 113.875 12.2778 112.894 12.2778C111.038 12.2778 109.532 13.8743 109.532 16.155C109.532 18.4737 111.038 20.0322 112.93 20.0322C113.945 19.9942 114.926 19.5 115.557 18.6258L116.993 20.2983ZM29.2132 16.6111V22.4269H0V16.6111C9.07219 11.0994 20.141 11.0994 29.2132 16.6111ZM124.279 13.1901V14.1784C124.279 14.1784 123.613 12.962 121.686 12.962C119.795 12.962 117.658 14.6725 117.658 17.7895C117.658 20.9445 119.795 22.617 121.686 22.617C123.578 22.617 124.243 21.4006 124.243 21.4006V22.3889H126.38V13.1901H124.279ZM122.212 20.4503C120.951 20.4503 119.935 19.234 119.935 17.7515C119.935 16.269 120.951 15.0527 122.212 15.0527C123.473 15.0527 124.489 16.269 124.489 17.7515C124.489 19.234 123.473 20.4503 122.212 20.4503ZM157.38 13.1901V14.1784C157.38 14.1784 156.714 12.962 154.788 12.962C152.896 12.962 150.76 14.6725 150.76 17.7895C150.76 20.9445 152.896 22.617 154.788 22.617C156.679 22.617 157.345 21.4006 157.345 21.4006V22.3889H159.622V13.1901H157.38ZM155.313 20.4503C154.052 20.4503 153.036 19.234 153.036 17.7515C153.036 16.269 154.052 15.0527 155.313 15.0527C156.574 15.0527 157.59 16.269 157.59 17.7515C157.59 19.234 156.574 20.4503 155.313 20.4503ZM128.867 13.1901V26H131.004V21.3626C131.004 21.3626 131.669 22.579 133.561 22.579C135.452 22.579 137.589 20.8685 137.589 17.7515C137.589 14.5965 135.452 12.924 133.561 12.924C131.634 12.924 130.969 14.1404 130.969 14.1404V13.1521L128.867 13.1901ZM130.759 17.7515C130.759 16.269 131.774 15.0527 133.035 15.0527C134.296 15.0527 135.312 16.269 135.312 17.7515C135.312 19.234 134.296 20.4503 133.035 20.4503C131.774 20.4503 130.759 19.234 130.759 17.7515Z" fill="#1946BA"/>
</svg>
