<svg width="110" height="21" viewBox="0 0 110 21" fill="none" xmlns="http://www.w3.org/2000/svg">
<path d="M0 0.0158691H6.88123V20.5216H0V0.0158691Z" fill="#1173BF"/>
<path d="M41.1777 0.0158691H48.051V20.5227H41.1777V0.0158691Z" fill="#1173BF"/>
<path d="M20.2812 0.0146484H27.1263V20.5203H20.2812V0.0146484Z" fill="#1173BF"/>
<path d="M9.10254 14.2884V0H9.96665C11.1644 0.0101793 12.3056 0.254483 13.3428 0.870898C15.1751 1.95896 16.3287 3.54241 16.6002 5.66762C16.7766 7.0588 16.8264 8.47599 16.3231 9.82871C15.3945 12.3317 13.5928 13.7986 10.9608 14.233C10.358 14.3314 9.74271 14.3099 9.10254 14.2884Z" fill="#1173BF"/>
<path d="M50.0195 0.0114746H58.3518V6.24575C58.3156 6.29438 58.2557 6.27968 58.2014 6.27968C57.5228 6.27968 56.8442 6.29212 56.1655 6.27968C54.1353 6.22652 52.5055 5.37485 51.2693 3.77217C50.4918 2.76524 50.0538 1.53762 50.0184 0.265958C50.0161 0.191309 50.0195 0.11553 50.0195 0.0114746Z" fill="#1173BF"/>
<path d="M37.4494 0.0250244V6.2559C37.2977 6.28692 37.1422 6.2953 36.988 6.28079C36.4032 6.28079 35.8196 6.2921 35.2349 6.28079C33.2386 6.22084 31.6291 5.3884 30.3974 3.82305C29.588 2.79285 29.1341 1.5282 29.1035 0.218432C29.1035 0.163011 29.1035 0.105328 29.1035 0.0284174L37.4494 0.0250244Z" fill="#1173BF"/>
<path d="M58.3556 20.5273H50.0425C49.9949 20.185 50.013 19.8369 50.0957 19.5014C50.5654 17.1217 51.9325 15.4938 54.1968 14.6176C54.8712 14.3736 55.5834 14.2506 56.3005 14.2545C56.9792 14.2432 57.6578 14.2545 58.3556 14.2545V20.5273Z" fill="#1173BF"/>
<path d="M53.1625 7.38339C53.7842 7.38545 54.3913 7.57216 54.9067 7.91981C55.4221 8.26746 55.8226 8.76039 56.0573 9.33604C56.2921 9.91169 56.3506 10.5441 56.2253 11.153C56.1 11.762 55.7967 12.32 55.3538 12.7562C54.9108 13.1925 54.3483 13.4873 53.7375 13.6033C53.1268 13.7193 52.4953 13.6512 51.9233 13.4077C51.3513 13.1642 50.8645 12.7563 50.5247 12.2356C50.1849 11.715 50.0075 11.1052 50.0149 10.4836C50.018 10.0733 50.1019 9.66771 50.2617 9.28988C50.4216 8.91206 50.6543 8.56943 50.9466 8.28155C51.2389 7.99367 51.585 7.76618 51.9653 7.61207C52.3455 7.45797 52.7523 7.38026 53.1625 7.38339V7.38339Z" fill="#1173BF"/>
<path d="M32.2473 7.3824C32.8676 7.38441 33.4735 7.57028 33.9882 7.9165C34.5029 8.26272 34.9035 8.75377 35.1392 9.32757C35.375 9.90138 35.4353 10.5322 35.3126 11.1403C35.19 11.7484 34.8898 12.3065 34.45 12.744C34.0103 13.1815 33.4507 13.4789 32.842 13.5985C32.2333 13.7181 31.6028 13.6546 31.0302 13.4159C30.4576 13.1773 29.9686 12.7743 29.6249 12.2578C29.2813 11.7413 29.0985 11.1346 29.0996 10.5142C29.0989 10.1014 29.1799 9.69252 29.338 9.31117C29.4961 8.92983 29.7282 8.58357 30.0208 8.2924C30.3135 8.00122 30.6609 7.77089 31.043 7.6147C31.4252 7.45851 31.8345 7.37956 32.2473 7.3824V7.3824Z" fill="#1173BF"/>
<path d="M79.1843 0.791748H79.9556C80.002 1.00325 80.0122 5.24125 79.9635 5.57377C79.7152 5.5936 79.4657 5.59587 79.2171 5.58056C79.2046 5.51948 79.1933 5.46745 79.1831 5.41656C79.1594 5.41656 79.1356 5.40864 79.1254 5.41656C78.4661 5.98207 77.1642 5.73325 76.8046 4.60334C76.5783 3.90889 76.6191 3.228 77.0658 2.61385C77.4832 2.04154 78.4581 1.82212 79.0632 2.27454C79.0786 2.29057 79.0977 2.30265 79.1188 2.30974C79.1398 2.31683 79.1623 2.31872 79.1843 2.31525V0.791748ZM79.1978 3.87043C79.1978 3.56957 79.1888 3.26872 79.1978 2.9656C79.201 2.90209 79.1899 2.83867 79.1655 2.77997C79.141 2.72128 79.1038 2.66877 79.0565 2.62629C78.5927 2.17387 77.9537 2.30394 77.6992 2.93959C77.4674 3.52287 77.4674 4.17274 77.6992 4.75603C77.7394 4.87716 77.8043 4.98863 77.8898 5.08343C77.9753 5.17823 78.0794 5.2543 78.1957 5.30685C78.3038 5.35368 78.4218 5.37318 78.5392 5.36361C78.6566 5.35403 78.7698 5.31569 78.8688 5.25196C78.9679 5.18823 79.0497 5.10108 79.1071 4.99821C79.1645 4.89534 79.1957 4.77992 79.1978 4.66216V3.87043Z" fill="#060606"/>
<path d="M83.6651 17.2358V15.6682H84.4478V20.4344C84.1967 20.491 83.9468 20.4502 83.7115 20.4582C83.6436 20.4061 83.6844 20.3258 83.6323 20.2625C83.4667 20.3962 83.2727 20.4904 83.0651 20.5379C82.8575 20.5853 82.6419 20.5847 82.4346 20.5362C82.2116 20.4936 82.0015 20.3999 81.8208 20.2626C81.6401 20.1252 81.4936 19.9479 81.3929 19.7445C81.2427 19.455 81.1582 19.1359 81.1453 18.8101C81.1324 18.4842 81.1914 18.1595 81.3182 17.859C81.4085 17.6424 81.5475 17.4494 81.7243 17.295C81.9011 17.1406 82.1111 17.029 82.338 16.9687C82.5649 16.9085 82.8026 16.9012 83.0327 16.9475C83.2628 16.9939 83.4792 17.0925 83.6651 17.2358V17.2358ZM83.6651 18.7526C83.6651 18.4426 83.6651 18.1316 83.6651 17.8217C83.6687 17.7666 83.6605 17.7113 83.641 17.6596C83.6215 17.6079 83.5911 17.561 83.552 17.522C83.086 17.0277 82.421 17.1634 82.1631 17.8262C81.9386 18.4023 81.9386 19.0417 82.1631 19.6178C82.2056 19.7524 82.2788 19.8754 82.3769 19.9768C82.4751 20.0783 82.5955 20.1556 82.7286 20.2025C82.8343 20.2359 82.9462 20.2444 83.0557 20.2274C83.1652 20.2103 83.2692 20.1681 83.3597 20.1042C83.4502 20.0402 83.5246 19.9562 83.5772 19.8586C83.6298 19.7611 83.6591 19.6528 83.6629 19.542L83.6651 18.7526Z" fill="#060606"/>
<path d="M84.6686 12.9901H83.938C83.8543 12.9584 83.9233 12.8645 83.8701 12.826C83.8486 12.826 83.826 12.8193 83.8136 12.826C82.8522 13.447 81.6963 12.9663 81.4384 11.8194C81.2959 11.1838 81.3502 10.5662 81.7585 10.0188C82.1826 9.4533 83.1564 9.22709 83.7581 9.68742C83.773 9.70372 83.792 9.71562 83.8132 9.7218C83.8343 9.72799 83.8568 9.72822 83.878 9.72249V8.21142C84.1412 8.18704 84.4059 8.18251 84.6698 8.19785L84.6686 12.9901ZM83.8905 11.3014C83.8905 10.9825 83.8905 10.6624 83.8905 10.3434C83.8919 10.2923 83.8825 10.2414 83.863 10.194C83.8436 10.1467 83.8144 10.104 83.7774 10.0686C83.3193 9.5664 82.6463 9.69082 82.3839 10.3491C82.1532 10.933 82.1532 11.5828 82.3839 12.1667C82.46 12.3818 82.6105 12.5627 82.8081 12.6768C82.9166 12.7394 83.0396 12.7725 83.1649 12.7728C83.2902 12.7731 83.4134 12.7406 83.5222 12.6785C83.631 12.6164 83.7216 12.5268 83.7851 12.4187C83.8485 12.3107 83.8825 12.1879 83.8837 12.0626L83.8905 11.3014Z" fill="#060606"/>
<path d="M66.5694 3.56386V5.57597H65.7969C65.7562 5.32601 65.7415 1.43864 65.7766 0.825621C65.8252 0.760021 65.8965 0.784904 65.9575 0.784904C66.3636 0.784904 66.7685 0.784904 67.1734 0.784904C67.3806 0.787143 67.5865 0.817972 67.7853 0.876517C68.741 1.15475 69.0622 2.43056 68.3508 3.1318C68.1343 3.32983 67.8639 3.45897 67.5738 3.50278C67.2503 3.56951 66.92 3.53106 66.5694 3.56386ZM66.5819 3.25961C67.0343 3.28449 67.4867 3.3286 67.7615 2.86149C67.9979 2.46449 67.9719 1.73045 67.705 1.38096C67.4064 0.991883 66.9913 1.04957 66.5819 1.07897V3.25961Z" fill="#060606"/>
<path d="M87.6935 17.0367H88.4389V20.4298C87.9356 20.5147 87.7195 20.4841 87.6121 20.3043C87.3166 20.5138 86.9541 20.6068 86.5942 20.5655C86.0286 20.5101 85.6893 20.1878 85.5955 19.6268C85.5768 19.5343 85.5655 19.4405 85.5615 19.3463C85.5615 18.5851 85.5615 17.8239 85.5615 17.048C85.816 16.996 86.0671 17.0322 86.3137 17.0254C86.3531 17.1245 86.3648 17.2324 86.3476 17.3376C86.3623 18.0716 86.3171 18.8079 86.3804 19.5386C86.3813 19.5942 86.3854 19.6497 86.3928 19.7048C86.4449 19.9604 86.5161 20.2047 86.817 20.2703C87.0635 20.328 87.473 20.1493 87.6087 19.931C87.6496 19.846 87.6635 19.7505 87.6483 19.6573C87.6483 18.8758 87.6483 18.0942 87.6483 17.3127C87.6361 17.2183 87.6518 17.1223 87.6935 17.0367V17.0367Z" fill="#060606"/>
<path d="M81.1518 2.15918H81.9096C81.9429 2.2589 81.9526 2.36499 81.9379 2.46908C81.9526 3.20313 81.9074 3.93943 81.9707 4.67121C81.9731 4.72762 81.9783 4.78387 81.9865 4.83974C82.0397 5.09535 82.1121 5.33965 82.4141 5.40525C82.6618 5.45954 83.0746 5.27858 83.2058 5.06594C83.2447 4.97989 83.2572 4.88428 83.242 4.7911C83.242 4.00956 83.242 3.22801 83.242 2.44646C83.2292 2.35092 83.2388 2.25371 83.2703 2.16257H84.0247V5.58848C83.7985 5.58848 83.5722 5.5783 83.354 5.58848C83.2273 5.5964 83.2646 5.46746 83.1922 5.43014C82.8902 5.64593 82.5171 5.73781 82.1494 5.68688C81.611 5.62354 81.2774 5.30798 81.1858 4.77527C81.1644 4.67401 81.1519 4.57107 81.1484 4.46762C81.1507 3.70983 81.1518 2.94864 81.1518 2.15918Z" fill="#060606"/>
<path d="M76.3448 9.57409V12.9955C76.0666 12.948 75.7646 13.1086 75.4864 12.8575C75.1911 13.0601 74.8315 13.1467 74.4764 13.1007C73.9244 13.0385 73.5907 12.7206 73.4969 12.171C73.4599 11.9198 73.4444 11.6659 73.4505 11.412C73.4505 10.8092 73.4505 10.2075 73.4505 9.58201H74.2207C74.2784 9.66005 74.2422 9.76637 74.2445 9.86477C74.2615 10.6079 74.2139 11.3521 74.2807 12.0952C74.2849 12.1711 74.2944 12.2467 74.309 12.3214C74.3802 12.6392 74.5239 12.7953 74.7614 12.8236C74.9989 12.8518 75.4095 12.6641 75.5203 12.4628C75.551 12.3836 75.5608 12.2979 75.5486 12.2139C75.5486 11.4324 75.5486 10.6508 75.5486 9.86929C75.5335 9.76739 75.5452 9.66332 75.5825 9.56731C75.8365 9.55242 76.0912 9.55469 76.3448 9.57409Z" fill="#060606"/>
<path d="M109.354 20.4548H108.615C108.55 20.353 108.58 20.2467 108.579 20.146C108.569 19.421 108.595 18.696 108.56 17.971C108.556 17.811 108.524 17.6529 108.465 17.5039C108.429 17.395 108.354 17.303 108.255 17.2455C108.156 17.1879 108.039 17.1688 107.926 17.1918C107.701 17.2248 107.495 17.338 107.346 17.5107C107.314 17.5509 107.291 17.5973 107.278 17.6469C107.265 17.6966 107.262 17.7484 107.27 17.7991V20.4424C107.011 20.4659 106.751 20.4697 106.491 20.4537V17.0278C106.774 17.0662 107.075 16.9147 107.354 17.1499C107.627 16.9703 107.951 16.8838 108.277 16.9033C108.875 16.9361 109.257 17.2743 109.346 17.867C109.378 18.1004 109.392 18.336 109.388 18.5716C109.388 19.1745 109.388 19.7773 109.382 20.3813C109.376 20.4068 109.366 20.4315 109.354 20.4548V20.4548Z" fill="#060606"/>
<path d="M99.0898 9.57201C99.7685 9.53016 99.7809 9.53242 99.9313 9.69529C100.206 9.51164 100.532 9.42159 100.862 9.43855C101.472 9.46795 101.861 9.81292 101.942 10.4203C101.967 10.6078 101.979 10.7967 101.981 10.9858C101.981 11.6441 101.981 12.3023 101.981 12.9787H101.209C101.142 12.8995 101.18 12.7921 101.179 12.6937C101.168 11.9777 101.191 11.2618 101.161 10.5447C101.157 10.3939 101.133 10.2443 101.088 10.1002C100.992 9.79708 100.764 9.67041 100.452 9.7394C100.313 9.77125 100.184 9.83388 100.074 9.92263C100.005 9.97058 99.9501 10.0352 99.9135 10.1104C99.8769 10.1856 99.8601 10.2689 99.8646 10.3524C99.8759 11.1249 99.8646 11.8974 99.8646 12.6688C99.8776 12.7754 99.8687 12.8835 99.8386 12.9866H99.0898V9.57201Z" fill="#060606"/>
<path d="M80.3803 12.9832H79.601C79.5666 12.8813 79.5569 12.7728 79.5727 12.6665C79.5637 11.9607 79.5874 11.2549 79.5558 10.548C79.5516 10.4069 79.5304 10.2667 79.4924 10.1307C79.3918 9.79137 79.1599 9.6613 78.8229 9.745C78.4394 9.83887 78.2641 10.064 78.2641 10.4621C78.2641 11.2048 78.2641 11.9486 78.2641 12.6936C78.2736 12.7906 78.2663 12.8886 78.2426 12.9832H77.4814V9.55611C77.7687 9.61267 78.0673 9.44301 78.3399 9.68732C78.6123 9.51078 78.9329 9.42341 79.2572 9.43736C79.8691 9.46789 80.2559 9.8106 80.343 10.4168C80.378 10.7171 80.3909 11.0195 80.3814 11.3217C80.3792 11.8634 80.3803 12.4086 80.3803 12.9832Z" fill="#060606"/>
<path d="M96.2694 13.1109C95.2583 13.1109 94.4835 12.3191 94.4903 11.2842C94.4971 10.2007 95.2424 9.44291 96.3078 9.43726C97.3258 9.43726 98.0938 10.229 98.0881 11.2616C98.0813 12.3418 97.3292 13.1063 96.2694 13.1109ZM97.2511 11.2616C97.2451 10.8707 97.1438 10.4871 96.9559 10.1442C96.6087 9.56846 95.9482 9.56167 95.6247 10.1521C95.4241 10.4957 95.3194 10.8868 95.3214 11.2847C95.3234 11.6825 95.432 12.0726 95.636 12.4141C95.9572 12.9864 96.6087 12.9729 96.9514 12.4141C97.1618 12.0658 97.2251 11.6744 97.2511 11.2616Z" fill="#060606"/>
<path d="M70.7424 9.4373C71.7604 9.43051 72.5283 10.2188 72.525 11.2583C72.525 12.3373 71.7717 13.1041 70.7153 13.1109C69.7042 13.1166 68.9283 12.3248 68.9317 11.2877C68.9305 10.2041 69.6781 9.44522 70.7424 9.4373ZM71.6891 11.282C71.6859 10.8959 71.5901 10.5162 71.4098 10.1747C71.0557 9.56058 70.3918 9.54927 70.0525 10.1747C69.8591 10.5117 69.7574 10.8935 69.7574 11.282C69.7574 11.6706 69.8591 12.0523 70.0525 12.3893C70.3794 12.9967 71.0456 12.9899 71.3962 12.3972C71.5814 12.0542 71.6818 11.6718 71.6891 11.282Z" fill="#060606"/>
<path d="M103.675 20.5758C102.665 20.5758 101.889 19.7841 101.899 18.7469C101.906 17.6634 102.652 16.9079 103.718 16.9022C104.736 16.9022 105.504 17.6939 105.496 18.7288C105.487 19.809 104.736 20.5724 103.675 20.5758ZM104.657 18.7458C104.637 18.3375 104.571 17.9394 104.349 17.5865C104.01 17.0425 103.365 17.0323 103.048 17.5865C102.84 17.932 102.73 18.3275 102.73 18.7305C102.73 19.1336 102.84 19.5291 103.048 19.8746C103.368 20.4492 104.019 20.4401 104.363 19.8746C104.57 19.533 104.633 19.1394 104.657 18.7458V18.7458Z" fill="#060606"/>
<path d="M74.0914 2.02893C75.0912 2.02893 75.8501 2.8003 75.8614 3.83859C75.8728 4.92325 75.107 5.70819 74.0359 5.70819C73.035 5.70819 72.2772 4.93456 72.2647 3.89853C72.2546 2.80935 73.0135 2.03119 74.0914 2.02893ZM75.0245 3.87026C75.0196 3.48551 74.9231 3.10746 74.7428 2.7675C74.3877 2.15334 73.7249 2.13977 73.3856 2.76071C73.1925 3.09798 73.0908 3.4799 73.0908 3.86856C73.0908 4.25723 73.1925 4.63914 73.3856 4.97641C73.7125 5.58378 74.3787 5.57925 74.7293 4.98772C74.9159 4.64431 75.0171 4.26103 75.0245 3.87026V3.87026Z" fill="#060606"/>
<path d="M69.9724 20.5758C68.9612 20.5758 68.1865 19.7841 68.1944 18.7469C68.2023 17.6634 68.9477 16.9079 70.0142 16.9022C71.0322 16.9022 71.799 17.6939 71.7922 18.7277C71.7843 19.809 71.0322 20.5724 69.9724 20.5758ZM70.9496 18.8159C70.9562 18.4076 70.861 18.0041 70.6725 17.6419C70.3173 17.0278 69.6546 17.0131 69.3153 17.6329C69.1221 17.9701 69.0205 18.3521 69.0205 18.7407C69.0205 19.1294 69.1221 19.5113 69.3153 19.8486C69.6546 20.4695 70.3185 20.4525 70.6725 19.8373C70.8401 19.5218 70.9348 19.1728 70.9496 18.8159V18.8159Z" fill="#060606"/>
<path d="M86.0248 10.3976C85.9354 10.3501 85.858 10.2827 85.7986 10.2008C85.9132 9.96335 86.0969 9.76619 86.3257 9.63523C87.0292 9.20996 88.124 9.51082 88.4238 10.2008C88.4833 10.3496 88.5125 10.5088 88.5097 10.669C88.5097 11.4132 88.5097 12.1563 88.5097 12.8994C88.5057 12.9294 88.4977 12.9587 88.486 12.9865H87.7632C87.6886 12.9446 87.7406 12.8542 87.6705 12.8078C87.6401 12.8243 87.6107 12.8424 87.5823 12.8621C87.1423 13.1765 86.3811 13.1946 85.9298 12.9005C85.4785 12.6065 85.4322 11.9346 85.8088 11.5082C86.0497 11.2356 86.3743 11.1158 86.7136 11.0196C86.9116 10.9642 87.1163 10.9269 87.3097 10.8568C87.5031 10.7866 87.6954 10.7289 87.6976 10.4745C87.6976 10.1487 87.5291 9.85918 87.2757 9.77209C86.9149 9.6488 86.613 9.76304 86.3426 10.0073C86.2243 10.1268 86.1179 10.2575 86.0248 10.3976V10.3976ZM87.7112 11.0072C87.4601 11.1203 87.2452 11.2051 87.0326 11.3001C86.8585 11.3732 86.7037 11.4854 86.5802 11.6281C86.5097 11.7097 86.4586 11.8061 86.4304 11.9102C86.4023 12.0142 86.3979 12.1232 86.4175 12.2292C86.4372 12.3352 86.4804 12.4354 86.544 12.5224C86.6076 12.6095 86.6899 12.6811 86.7849 12.732C87.14 12.9073 87.6897 12.6461 87.7055 12.2796C87.7225 11.8724 87.7112 11.4607 87.7112 11.0072Z" fill="#060606"/>
<path d="M95.9479 20.4525H95.2241C95.1505 20.4118 95.2026 20.3202 95.1336 20.2738C95.1029 20.2903 95.073 20.3085 95.0442 20.3281C94.6043 20.6425 93.8442 20.6674 93.3918 20.3677C92.9394 20.068 92.893 19.4018 93.2696 18.9743C93.5105 18.7017 93.8351 18.5818 94.1745 18.4857C94.3735 18.4302 94.5782 18.3929 94.7705 18.3228C94.9628 18.2527 95.1573 18.195 95.1596 17.9405C95.1596 17.6159 94.9911 17.3252 94.7377 17.2381C94.378 17.1148 94.0749 17.2279 93.8046 17.4723C93.6907 17.5887 93.5884 17.7159 93.4992 17.8523C93.4051 17.8146 93.3221 17.7535 93.2583 17.6747C93.3719 17.4327 93.5571 17.2313 93.7888 17.0979C94.4923 16.6726 95.5871 16.9735 95.8868 17.6634C95.9465 17.8122 95.9757 17.9714 95.9728 18.1316C95.9728 18.8747 95.9728 19.619 95.9728 20.3621C95.9687 20.3932 95.9604 20.4237 95.9479 20.4525V20.4525ZM95.1732 18.4732C94.913 18.5863 94.6812 18.6813 94.4538 18.7876C94.2904 18.8604 94.1466 18.9709 94.0342 19.11C93.9677 19.1917 93.92 19.2871 93.8945 19.3893C93.8689 19.4916 93.8662 19.5982 93.8865 19.7016C93.9068 19.805 93.9496 19.9027 94.0119 19.9877C94.0742 20.0727 94.1544 20.143 94.2468 20.1935C94.5748 20.3587 95.1404 20.1415 95.1652 19.8112C95.198 19.3758 95.1732 18.9358 95.1732 18.4732Z" fill="#060606"/>
<path d="M78.6899 20.1822H80.5403C80.5746 20.2669 80.5782 20.361 80.5505 20.448H77.8857V15.6705H80.5459C80.5797 15.7563 80.5797 15.8517 80.5459 15.9375H78.6888V17.6193H80.201C80.2304 17.7101 80.2304 17.8079 80.201 17.8987H78.6899V20.1822Z" fill="#060606"/>
<path d="M68.4612 8.20325C68.4778 8.29402 68.4671 8.38767 68.4307 8.47243H66.5859V10.1498H68.0947C68.1292 10.2382 68.134 10.3355 68.1083 10.4269H66.5769V12.983H65.7852V8.20325H68.4612Z" fill="#060606"/>
<path d="M97.9605 5.57614H97.1688V1.07122H95.7799C95.6792 0.987524 95.7414 0.89591 95.7041 0.800903H99.3766C99.4015 0.883126 99.4015 0.970902 99.3766 1.05312H97.9605V5.57614Z" fill="#060606"/>
<path d="M66.8357 17.0187H67.4352C67.5279 17.1126 67.4804 17.1951 67.4974 17.289H66.8346V20.431C66.562 20.4899 66.3121 20.4491 66.0429 20.4627V17.3297C65.8958 17.2687 65.7613 17.3184 65.6323 17.2856C65.5577 17.2189 65.595 17.1341 65.5973 17.0481C65.7262 16.978 65.8755 17.0481 66.0225 16.9904C66.035 16.4249 66.1469 15.899 66.743 15.6558C66.9518 15.5592 67.1816 15.5168 67.4112 15.5327C67.6407 15.5485 67.8625 15.6219 68.0561 15.7463C68.0561 15.7768 68.0652 15.7983 68.0561 15.8108C68.032 15.8619 67.9925 15.9043 67.943 15.9318C67.9251 15.9357 67.9066 15.9357 67.8887 15.9318C67.3594 15.7056 67.0099 15.8831 66.8923 16.4441C66.8417 16.6312 66.8226 16.8254 66.8357 17.0187V17.0187Z" fill="#060606"/>
<path d="M93.9434 5.57581V0.794922H94.7204V5.57581H93.9434Z" fill="#060606"/>
<path d="M88.9445 2.42596H88.5192C88.4992 2.3842 88.4879 2.33887 88.4857 2.29263C88.4836 2.24639 88.4907 2.2002 88.5068 2.15678C88.7596 2.14906 89.0009 2.04932 89.1854 1.87628C89.3513 1.6994 89.4706 1.48409 89.5326 1.24968C89.599 1.21914 89.6744 1.2143 89.7441 1.23611V2.14094H90.7032C90.8231 2.22577 90.7915 2.31286 90.7869 2.41918H89.8063C89.7771 2.45076 89.7562 2.48907 89.7453 2.5307C89.7345 2.57233 89.734 2.616 89.7441 2.65782C89.7577 3.36246 89.7079 4.06936 89.7781 4.77286C89.7848 4.85703 89.7995 4.94035 89.8222 5.02169C89.8395 5.10251 89.876 5.17799 89.9286 5.24175C89.9812 5.30551 90.0484 5.35569 90.1245 5.38807C90.2005 5.42044 90.2832 5.43406 90.3657 5.42777C90.4481 5.42149 90.5278 5.39549 90.5981 5.35195C90.6546 5.32255 90.7112 5.28296 90.7598 5.25016C90.7967 5.26721 90.8297 5.29168 90.8568 5.32203C90.8838 5.35239 90.9043 5.38798 90.917 5.4266C90.5257 5.7727 90.0744 5.75686 89.6208 5.61662C89.2306 5.49673 89.0553 5.18682 88.9886 4.79435C88.9508 4.46743 88.9383 4.13807 88.9513 3.80922C88.9411 3.35907 88.9445 2.90891 88.9445 2.42596Z" fill="#060606"/>
<path d="M91.5707 9.83554H90.5833C90.5585 9.86707 90.5411 9.90375 90.5322 9.94288C90.5234 9.98202 90.5235 10.0226 90.5324 10.0617C90.546 10.7664 90.4962 11.4722 90.5663 12.1768C90.5739 12.2606 90.589 12.3435 90.6116 12.4245C90.629 12.5053 90.6658 12.5808 90.7186 12.6444C90.7714 12.7081 90.8388 12.758 90.915 12.7901C90.9913 12.8222 91.0741 12.8354 91.1566 12.8287C91.239 12.8219 91.3186 12.7954 91.3886 12.7514C91.4463 12.7219 91.5017 12.6835 91.5481 12.653C91.612 12.6848 91.6649 12.7353 91.6996 12.7977C91.6914 12.8223 91.6783 12.845 91.6612 12.8645C91.2642 13.1789 90.8219 13.1597 90.3786 13.0081C89.9737 12.8701 89.8198 12.5376 89.7656 12.1395C89.7335 11.7739 89.7241 11.4068 89.7373 11.0401C89.7373 10.6465 89.7373 10.2484 89.7373 9.85929C89.5869 9.80048 89.4421 9.85929 89.3007 9.81405C89.2696 9.73247 89.2696 9.64228 89.3007 9.5607C89.821 9.53016 90.132 9.22704 90.2858 8.74862C90.3265 8.62081 90.3989 8.61742 90.5234 8.63551V9.54034H91.4994C91.608 9.63874 91.582 9.72018 91.5707 9.83554Z" fill="#060606"/>
<path d="M96.7007 17.0267C97.2233 16.9996 97.5151 16.7021 97.687 16.2553C97.7413 16.1139 97.7435 16.1151 97.9358 16.1173V16.9984C98.2819 17.0572 98.6144 16.9984 98.9413 17.0357C98.9693 17.0721 98.9869 17.1155 98.9921 17.1612C98.9972 17.2068 98.9899 17.253 98.9707 17.2948H97.998C97.9709 17.3242 97.9482 17.3389 97.9482 17.3524C97.9482 18.1442 97.8985 18.9359 97.9833 19.7208C98.0206 20.0703 98.1699 20.2445 98.4357 20.2863C98.5282 20.2959 98.6216 20.2861 98.71 20.2574C98.7985 20.2288 98.8799 20.182 98.9492 20.1201C98.9882 20.135 99.0234 20.1584 99.0524 20.1885C99.0813 20.2186 99.1032 20.2547 99.1166 20.2943C98.7377 20.6336 98.2955 20.6268 97.8487 20.5012C97.4449 20.3881 97.2527 20.0782 97.1859 19.6733C97.1471 19.3461 97.1343 19.0163 97.1475 18.6871C97.1475 18.2346 97.1475 17.7822 97.1475 17.3298C97.0061 17.2631 96.8613 17.323 96.7211 17.2846C96.6589 17.2167 96.6905 17.1353 96.7007 17.0267Z" fill="#060606"/>
<path d="M87.6868 5.13716C87.76 5.18342 87.817 5.25144 87.8496 5.3317C87.2762 5.88025 86.1384 5.81352 85.5231 5.15752C84.9078 4.50151 84.892 3.23475 85.5231 2.5697C86.1259 1.9318 87.2015 1.85489 87.8564 2.40344C87.8134 2.4747 87.7863 2.55839 87.6834 2.59685C87.5298 2.49147 87.3618 2.40881 87.1846 2.35141C86.9986 2.29422 86.7987 2.30141 86.6173 2.3718C86.4359 2.44219 86.2835 2.57168 86.1847 2.73936C85.8013 3.33089 85.8126 4.44609 86.2085 5.02858C86.4765 5.42331 86.9256 5.53867 87.3769 5.32265C87.4854 5.26496 87.585 5.1971 87.6868 5.13716Z" fill="#060606"/>
<path d="M92.313 20.2231C91.5789 20.8123 90.4762 20.602 89.9457 19.9822C89.3598 19.2956 89.3802 18.0673 89.9932 17.4373C90.5904 16.83 91.6694 16.7056 92.313 17.2665C92.2892 17.3495 92.2377 17.4217 92.1671 17.4713C91.9918 17.3989 91.8413 17.2665 91.6457 17.2202C91.4638 17.1666 91.2694 17.1738 91.092 17.2408C90.9146 17.3077 90.7639 17.4308 90.6628 17.5912C90.2669 18.1816 90.276 19.3194 90.6809 19.9053C90.9501 20.2943 91.4059 20.4063 91.8538 20.1869C91.9545 20.1382 92.0472 20.0738 92.158 20.007C92.2355 20.0565 92.291 20.1338 92.313 20.2231V20.2231Z" fill="#060606"/>
<path d="M69.68 2.16247H70.4276C70.5215 2.29253 70.4208 2.45653 70.5102 2.62393C70.8201 2.15568 71.2623 2.02109 71.8086 2.09573C71.8131 2.29837 71.793 2.5008 71.7487 2.69858C71.648 2.71102 71.5858 2.64316 71.5111 2.61601C71.363 2.55193 71.1982 2.5369 71.0409 2.57312C70.8836 2.60934 70.7421 2.69491 70.6369 2.81734C70.5799 2.87291 70.5351 2.93971 70.5053 3.0135C70.4755 3.08729 70.4614 3.16646 70.4638 3.246C70.4717 3.92462 70.4638 4.60324 70.4638 5.28186C70.477 5.38076 70.4673 5.48136 70.4355 5.57593H69.6777L69.68 2.16247Z" fill="#060606"/>
<path d="M72.7354 17.039H73.4909C73.5531 17.1781 73.4909 17.3263 73.5531 17.505C73.88 17.03 74.3211 16.8852 74.8674 16.9734C74.8663 17.1748 74.8428 17.3755 74.7972 17.5717C74.6638 17.5717 74.5608 17.479 74.4364 17.4518C74.3276 17.4235 74.2137 17.4206 74.1036 17.4434C73.9934 17.4663 73.89 17.5141 73.8014 17.5834C73.7128 17.6527 73.6414 17.7414 73.5926 17.8427C73.5438 17.9441 73.5191 18.0553 73.5203 18.1678V20.4423H72.7354V17.039Z" fill="#060606"/>
<path d="M100.87 20.4549H100.101V17.029C100.357 17.0166 100.614 17.02 100.87 17.0392V20.4549Z" fill="#060606"/>
<path d="M93.4654 12.9898H92.6963V9.56498C92.9526 9.55182 93.2094 9.55447 93.4654 9.5729V12.9898Z" fill="#060606"/>
<path d="M100.996 16.1819C100.993 16.3169 100.936 16.4452 100.839 16.5385C100.741 16.6318 100.61 16.6826 100.475 16.6796C100.34 16.6766 100.212 16.6201 100.119 16.5225C100.025 16.4249 99.9747 16.2943 99.9777 16.1593C99.9835 16.022 100.044 15.8926 100.145 15.7995C100.246 15.7064 100.38 15.6573 100.517 15.6628C100.583 15.6649 100.647 15.6802 100.707 15.7075C100.767 15.7349 100.821 15.7739 100.865 15.8222C100.91 15.8705 100.944 15.9272 100.966 15.9889C100.989 16.0507 100.999 16.1163 100.996 16.1819Z" fill="#060606"/>
<path d="M93.5865 8.71914C93.5829 8.85413 93.5258 8.98216 93.4278 9.07506C93.3298 9.16797 93.1989 9.21814 93.0639 9.21454C92.9289 9.21094 92.8009 9.15386 92.708 9.05587C92.6151 8.95787 92.5649 8.82698 92.5685 8.692C92.5753 8.55477 92.636 8.42579 92.7375 8.33319C92.839 8.24059 92.973 8.1919 93.1103 8.19774C93.176 8.20004 93.2406 8.21544 93.3003 8.24303C93.36 8.27061 93.4136 8.30983 93.4579 8.35839C93.5023 8.40695 93.5365 8.46387 93.5586 8.52581C93.5806 8.58776 93.5901 8.65349 93.5865 8.71914V8.71914Z" fill="#060606"/>
</svg>
