<svg width="700" height="532" viewBox="0 0 700 532" fill="none" xmlns="http://www.w3.org/2000/svg">
<g clip-path="url(#clip0_13_211)">
<path d="M839.903 506.79C809.08 518.249 777.623 529.854 744.8 531.561C711.977 533.268 676.814 523.564 655.355 498.622C627.336 466.024 628.531 416.043 601.975 382.201C592.385 369.951 579.654 360.526 565.135 354.93C550.617 349.334 534.853 347.774 519.52 350.417C504.186 353.06 489.855 359.807 478.049 369.941C466.243 380.075 457.403 393.218 452.469 407.972C449.489 415.855 448.688 424.396 450.152 432.695C454.42 452.005 476.781 463.318 496.338 460.417C515.895 457.515 532.233 443.691 544.085 427.892C557.231 410.352 566.111 389.992 570.021 368.425C573.931 346.858 572.763 324.677 566.611 303.639C560.459 282.602 549.49 263.286 534.576 247.222C519.661 231.159 501.209 218.789 480.683 211.093C418.769 187.858 350.441 210.118 285.869 224.284C240.644 234.186 194.625 240.028 148.36 241.741C109.758 243.179 68.0838 240.692 37.6753 216.847C2.24347 189.028 -8.07152 136.608 6.87666 94.0144C21.8248 51.4202 58.3297 18.9443 99.1994 0.219482" stroke="white" stroke-miterlimit="10" stroke-dasharray="8.08 8.08"/>
</g>
<defs>
<clipPath id="clip0_13_211">
<rect width="840" height="532" fill="white"/>
</clipPath>
</defs>
</svg>
